<?xml version="1.0" encoding="UTF-8"?>
<svg version="1.1" xmlns="http://www.w3.org/2000/svg" width="150" height="150">
<path d="M0 0 C49.5 0 99 0 150 0 C150 49.5 150 99 150 150 C100.5 150 51 150 0 150 C0 100.5 0 51 0 0 Z " fill="#E83439" transform="translate(0,0)"/>
<path d="M0 0 C49.5 0 99 0 150 0 C150 49.5 150 99 150 150 C100.5 150 51 150 0 150 C0 100.5 0 51 0 0 Z M73 38 C69.37462686 36.63722485 66.10574305 34.99058044 62.75 33.0625 C52.53974275 27.4796187 43.42493186 25.11664565 31.875 28.125 C20.49076852 32.00393783 13.01934874 39.71756611 7.625 50.25 C3.44577354 58.87663858 2.41250798 67.72747054 4.80078125 77.1640625 C10.63885616 92.37114422 22.62478581 103.65073214 35.05859375 113.62890625 C39.87059182 117.50790071 44.56459653 121.5240765 49.26904297 125.53222656 C51.06935946 127.05881369 52.87967762 128.57291852 54.69140625 130.0859375 C60.9574787 135.3468636 66.93204421 140.52216177 72 147 C74.59277877 144.41664951 77.17155395 141.82402202 79.7265625 139.203125 C85.23929545 133.56710712 90.84884855 128.32244129 97.0234375 123.40234375 C107.37959416 115.04402834 117.29608343 106.10278899 127 97 C127.75023438 96.30390625 128.50046875 95.6078125 129.2734375 94.890625 C138.37204026 86.17548826 146.95191693 74.89394664 147.3125 61.875 C147.20086038 52.55929403 143.2913972 44.75340045 137 38 C127.77237555 29.00683425 117.66971908 24.56508303 104.8125 24.5 C91.94888015 24.76576623 82.04511334 28.46045925 73 38 Z " fill="#FEFDFD" transform="translate(0,0)"/>
<path d="M0 0 C4.18394134 0.14646987 8.36851628 0.26986372 12.55328369 0.3901062 C13.40072144 0.41450272 14.24815918 0.43889923 15.12127686 0.46403503 C23.7901431 0.69949885 32.4559209 0.7344943 41.12750244 0.7104187 C41.82652679 0.7085556 42.52555115 0.7066925 43.24575806 0.70477295 C47.08139295 0.69298956 50.91693932 0.67399187 54.75250244 0.6479187 C55.00494385 6.34078979 55.00494385 6.34078979 52.73297119 9.10494995 C51.8112915 9.88225464 50.88961182 10.65955933 49.94000244 11.4604187 C49.44226318 11.88854858 48.94452393 12.31667847 48.43170166 12.75778198 C46.88828521 14.07564088 45.32548128 15.36555032 43.75250244 16.6479187 C42.85402588 17.38139526 41.95554932 18.11487183 41.02984619 18.87057495 C39.23635856 20.32596771 37.44206548 21.78036838 35.64703369 23.2338562 C27.03973025 30.41241697 18.94844271 38.03887838 11.75250244 46.6479187 C11.06414307 45.95182495 10.37578369 45.2557312 9.66656494 44.5385437 C6.54965173 41.42382087 3.35105251 38.40175217 0.12750244 35.3979187 C-0.48423828 34.82654175 -1.095979 34.25516479 -1.72625732 33.66647339 C-5.43119043 30.23674736 -9.2154845 27.01642965 -13.18499756 23.8979187 C-17.97410367 20.06521692 -22.00453703 15.88314168 -25.24749756 10.6479187 C-25.24749756 9.9879187 -25.24749756 9.3279187 -25.24749756 8.6479187 C-25.90749756 8.6479187 -26.56749756 8.6479187 -27.24749756 8.6479187 C-26.89687256 7.8847937 -26.54624756 7.1216687 -26.18499756 6.3354187 C-24.92388872 3.60032491 -24.92388872 3.60032491 -26.24749756 0.6479187 C-17.47110156 -0.50361554 -8.81633012 -0.31099895 0 0 Z " fill="#E93337" transform="translate(61.24749755859375,100.35208129882813)"/>
<path d="M0 0 C31.35 0 62.7 0 95 0 C95 4.29 95 8.58 95 13 C84.11 13 73.22 13 62 13 C62.66 12.67 63.32 12.34 64 12 C63.6596875 11.2265625 63.6596875 11.2265625 63.3125 10.4375 C62.83486278 6.71192968 64.38709761 4.35483696 66 1 C65.34 1 64.68 1 64 1 C63.67 2.65 63.34 4.3 63 6 C61 5 61 5 60 2 C58.02 1.67 56.04 1.34 54 1 C53.67 2.98 53.34 4.96 53 7 C52.34 7 51.68 7 51 7 C51 7.66 51 8.32 51 9 C51 9.99 51 10.98 51 12 C51.66 12 52.32 12 53 12 C53.33 10.02 53.66 8.04 54 6 C54.33 6 54.66 6 55 6 C55 8.31 55 10.62 55 13 C36.85 13 18.7 13 0 13 C0 11.02 0 9.04 0 7 C0.99 6.67 1.98 6.34 3 6 C2.01 5.67 1.02 5.34 0 5 C0 3.35 0 1.7 0 0 Z " fill="#F7ADAC" transform="translate(26,86)"/>
<path d="M0 0 C1.65 0 3.3 0 5 0 C8 9 11 18 14 27 C14.33 18.09 14.66 9.18 15 0 C17.31 0 19.62 0 22 0 C24.475 9.405 24.475 9.405 27 19 C28.65 12.73 30.3 6.46 32 0 C34.64 0 37.28 0 40 0 C40 10.56 40 21.12 40 32 C38.35 32 36.7 32 35 32 C34.67 25.73 34.34 19.46 34 13 C33.34 15.64 32.68 18.28 32 21 C31.35910387 23.34204017 30.67993125 25.66880716 30 28 C28.35 28 26.7 28 25 28 C24.53963371 26.64652311 24.08183463 25.292173 23.625 23.9375 C23.36976562 23.18339844 23.11453125 22.42929688 22.8515625 21.65234375 C21.82599346 18.4580255 20.92166629 15.22583202 20 12 C19.67 18.6 19.34 25.2 19 32 C15.7 32 12.4 32 9 32 C8.67 30.68 8.34 29.36 8 28 C4.37 27.67 0.74 27.34 -3 27 C-3.33 28.65 -3.66 30.3 -4 32 C-5.98 32 -7.96 32 -10 32 C-8.22053283 24.63238155 -5.83328411 17.6174963 -3.06982422 10.57226562 C-1.70950835 7.06860586 -0.5884415 3.71722802 0 0 Z " fill="#FDF3F3" transform="translate(36,53)"/>
<path d="M0 0 C3 2.4375 3 2.4375 5 5 C5.33 5.33 5.66 5.66 6 6 C6.15450072 8.90877308 6.23176915 11.77740059 6.25 14.6875 C6.270625 15.49123047 6.29125 16.29496094 6.3125 17.12304688 C6.34557552 22.17946687 5.78751222 25.60983948 3 30 C0.07149514 32.38618914 -3.31129465 32.47694155 -7.03125 32.38671875 C-10.45791039 31.71362475 -11.97560626 29.69919166 -14 27 C-16.27549439 20.5213631 -16.25545226 11.10937915 -13.6875 4.75 C-10.34742062 -0.69309232 -5.88924722 -1.05386529 0 0 Z " fill="#FDE9E9" transform="translate(92,53)"/>
<path d="M0 0 C4.95 0 9.9 0 15 0 C20 5 20 5 20.59375 7.0625 C20.38192704 11.44017442 19.87054046 14.46702713 17 18 C16.34 18 15.68 18 15 18 C15.433125 18.84304687 15.86625 19.68609375 16.3125 20.5546875 C16.869375 21.65039062 17.42625 22.74609375 18 23.875 C18.556875 24.96554688 19.11375 26.05609375 19.6875 27.1796875 C21 30 21 30 21 32 C18.69 32 16.38 32 14 32 C13.15930585 30.39967863 12.32768495 28.79458829 11.5 27.1875 C11.0359375 26.29417969 10.571875 25.40085937 10.09375 24.48046875 C9 22 9 22 9 19 C7.68 19 6.36 19 5 19 C5 23.29 5 27.58 5 32 C3.35 32 1.7 32 0 32 C0 21.44 0 10.88 0 0 Z " fill="#FCEBEB" transform="translate(100,53)"/>
<path d="M0 0 C2.97 0 5.94 0 9 0 C9 0.66 9 1.32 9 2 C10.32 2.33 11.64 2.66 13 3 C12.505 4.03125 12.01 5.0625 11.5 6.125 C8.86040781 13.176482 8.52284513 22.26942369 11.375 29.3125 C12.72465986 32.08482701 12.72465986 32.08482701 15 33 C21.38811106 33.5232779 21.38811106 33.5232779 27 31 C29.44233126 26.44156946 29.33294808 22.03840781 29.3125 17 C29.32861328 16.2059375 29.34472656 15.411875 29.36132812 14.59375 C29.3652598 9.87574383 28.96982734 6.8866342 26 3 C26.99 2.67 27.98 2.34 29 2 C29 1.34 29 0.68 29 0 C35.27 0 41.54 0 48 0 C48.495 1.485 48.495 1.485 49 3 C43.39 2.67 37.78 2.34 32 2 C32 12.56 32 23.12 32 34 C33.65 34 35.3 34 37 34 C37 29.71 37 25.42 37 21 C38.32 21 39.64 21 41 21 C40.505 22.485 40.505 22.485 40 24 C39.34 24 38.68 24 38 24 C38.495 29.445 38.495 29.445 39 35 C18.87 35 -1.26 35 -22 35 C-22 34.67 -22 34.34 -22 34 C-19.03 34 -16.06 34 -13 34 C-13 27.07 -13 20.14 -13 13 C-12.34 13.33 -11.68 13.66 -11 14 C-10.20058692 16.52369457 -9.5063892 18.99718906 -8.875 21.5625 C-8.69324219 22.27341797 -8.51148438 22.98433594 -8.32421875 23.71679688 C-7.87555535 25.47602969 -7.43684043 27.23779417 -7 29 C-5.35 29.33 -3.7 29.66 -2 30 C-1.896875 29.05125 -1.79375 28.1025 -1.6875 27.125 C-1.0089081 22.26508446 0.5085476 17.66196126 2 13 C2.33 13 2.66 13 3 13 C3 19.93 3 26.86 3 34 C4.65 34 6.3 34 8 34 C8 23.44 8 12.88 8 2 C5.36 2 2.72 2 0 2 C0 1.34 0 0.68 0 0 Z " fill="#CA5158" transform="translate(68,51)"/>
<path d="M0 0 C10.56 0 21.12 0 32 0 C32 3.96 32 7.92 32 12 C32.66 12 33.32 12 34 12 C34 10.02 34 8.04 34 6 C34.66 7.32 35.32 8.64 36 10 C36.66 10 37.32 10 38 10 C38.33 9.34 38.66 8.68 39 8 C39 9.32 39 10.64 39 12 C39.66 12 40.32 12 41 12 C41.33 11.34 41.66 10.68 42 10 C44.475 10.495 44.475 10.495 47 11 C47.99 9.68 48.98 8.36 50 7 C50.495 9.475 50.495 9.475 51 12 C51.66 12 52.32 12 53 12 C53.33 10.02 53.66 8.04 54 6 C54.33 6 54.66 6 55 6 C55 8.31 55 10.62 55 13 C36.85 13 18.7 13 0 13 C0 11.02 0 9.04 0 7 C0.99 6.67 1.98 6.34 3 6 C2.01 5.67 1.02 5.34 0 5 C0 3.35 0 1.7 0 0 Z " fill="#FCCCCB" transform="translate(26,86)"/>
<path d="M0 0 C1.65 0 3.3 0 5 0 C5.52498373 1.57495119 6.04985342 3.14994047 6.57421875 4.72509766 C7.02799903 6.0847991 7.48375691 7.44384201 7.94140625 8.80224609 C9.02331676 12.02153427 10.0714601 15.23837809 11.046875 18.4921875 C12.80910382 24.2844314 14.1543794 28.23118398 19 32 C15.7 32 12.4 32 9 32 C8.67 30.68 8.34 29.36 8 28 C4.37 27.67 0.74 27.34 -3 27 C-3.33 28.65 -3.66 30.3 -4 32 C-5.98 32 -7.96 32 -10 32 C-8.22053283 24.63238155 -5.83328411 17.6174963 -3.06982422 10.57226562 C-1.70950835 7.06860586 -0.5884415 3.71722802 0 0 Z " fill="#FCEFED" transform="translate(36,53)"/>
<path d="M0 0 C0.99 0.33 1.98 0.66 3 1 C3 1.66 3 2.32 3 3 C3.99 3 4.98 3 6 3 C6 4.32 6 5.64 6 7 C6.66 7.33 7.32 7.66 8 8 C10.4626293 9.90853771 12.7961082 11.7961082 15 14 C15 14.99 15 15.98 15 17 C16.32 17 17.64 17 19 17 C18.01 15.68 17.02 14.36 16 13 C34.15 13 52.3 13 71 13 C70.505 10.525 70.505 10.525 70 8 C69.67 9.32 69.34 10.64 69 12 C68.34 12 67.68 12 67 12 C64.57142857 4.57142857 64.57142857 4.57142857 66 1 C66.495 3.97 66.495 3.97 67 7 C67.66 7 68.32 7 69 7 C69.33 5.02 69.66 3.04 70 1 C71.98 1 73.96 1 76 1 C76.99 2.98 76.99 2.98 78 5 C78.66 3.68 79.32 2.36 80 1 C80.66 1 81.32 1 82 1 C82 4.63 82 8.26 82 12 C81.01 10.02 81.01 10.02 80 8 C80 9.32 80 10.64 80 12 C94.85 12.495 94.85 12.495 110 13 C110 13.33 110 13.66 110 14 C81.95 14.33 53.9 14.66 25 15 C25 15.66 25 16.32 25 17 C25.99 17.33 26.98 17.66 28 18 C27.525625 18.45375 27.05125 18.9075 26.5625 19.375 C24.90972192 20.93258204 24.90972192 20.93258204 24 23 C24.66 23 25.32 23 26 23 C27.38442 24.96498322 28.71203834 26.97048465 30 29 C30.98866506 30.34175973 31.9838154 31.67896002 33 33 C29.49172085 31.47920927 27.04728354 29.4004327 24.25 26.8125 C21.16961066 23.98052915 18.07266025 21.1984208 14.875 18.5 C8.82767965 13.21319458 3.08360735 7.51629292 0 0 Z " fill="#CE484A" transform="translate(10,86)"/>
<path d="M0 0 C2.65269897 2.47585238 4.68010103 4.59026101 6 8 C6 8.99 6 9.98 6 11 C8.31 11 10.62 11 13 11 C12.01 8.525 12.01 8.525 11 6 C11.66 6 12.32 6 13 6 C15.10748258 9.48676996 15.37734837 12.53128176 15.625 16.5625 C15.73714844 18.26599609 15.73714844 18.26599609 15.8515625 20.00390625 C15.95049434 22.0007673 16 24.00068973 16 26 C14.50390625 27.60546875 14.50390625 27.60546875 12.5625 29.1875 C11.92441406 29.71730469 11.28632812 30.24710938 10.62890625 30.79296875 C9 32 9 32 8 32 C8 30.35 8 28.7 8 27 C7.18362061 27.03552979 6.36724121 27.07105957 5.52612305 27.10766602 C-16.37523758 28.01901822 -38.09953485 27.8768139 -60 27 C-60 26.67 -60 26.34 -60 26 C-24.36 25.505 -24.36 25.505 12 25 C12.33 20.71 12.66 16.42 13 12 C8.38 12 3.76 12 -1 12 C-2.20272819 9.59454362 -2.10071472 8.05003047 -2.0625 5.375 C-2.05347656 4.55773437 -2.04445312 3.74046875 -2.03515625 2.8984375 C-2.02355469 2.27195312 -2.01195312 1.64546875 -2 1 C-1.34 0.67 -0.68 0.34 0 0 Z " fill="#D03D44" transform="translate(108,74)"/>
<path d="M0 0 C5.75 -0.125 5.75 -0.125 8 1 C9.05885037 4.1765511 9.20049266 6.59988011 9.25 9.9375 C9.28867188 11.49791016 9.28867188 11.49791016 9.328125 13.08984375 C8.96044751 16.35079288 8.30267938 17.69732062 6 20 C3.4375 20.375 3.4375 20.375 1 20 C-1 18 -1 18 -1.23046875 14.375 C-1.22647678 12.9166018 -1.2117184 11.45820257 -1.1875 10 C-1.18685547 9.26265625 -1.18621094 8.5253125 -1.18554688 7.765625 C-1.14050904 2.28101809 -1.14050904 2.28101809 0 0 Z " fill="#E43438" transform="translate(84,59)"/>
<path d="M0 0 C1.27875 -0.061875 2.5575 -0.12375 3.875 -0.1875 C4.95394531 -0.23970703 4.95394531 -0.23970703 6.0546875 -0.29296875 C6.69664063 -0.19628906 7.33859375 -0.09960938 8 0 C10 3 10 3 10 6 C10.66 6 11.32 6 12 6 C12 4.02 12 2.04 12 0 C13.95803507 -0.05389087 15.91648909 -0.09274217 17.875 -0.125 C19.51082031 -0.15980469 19.51082031 -0.15980469 21.1796875 -0.1953125 C24 0 24 0 26 2 C26.25 5.5 26.25 5.5 26 9 C25.34 9.66 24.68 10.32 24 11 C20.46428571 10.46428571 20.46428571 10.46428571 19 9 C18.95907063 6.66702567 18.95758277 4.33294775 19 2 C18.34 2 17.68 2 17 2 C17 4.97 17 7.94 17 11 C16.34 11 15.68 11 15 11 C15 8.03 15 5.06 15 2 C14.34 2 13.68 2 13 2 C13 4.97 13 7.94 13 11 C12.34 11 11.68 11 11 11 C9.5393715 8.35261084 9 7.10551666 9 4 C8.34 4 7.68 4 7 4 C7 5.98 7 7.96 7 10 C4.69 10 2.38 10 0 10 C0 8.02 0 6.04 0 4 C1.65 4 3.3 4 5 4 C5 4.66 5 5.32 5 6 C3.68 6 2.36 6 1 6 C1 6.99 1 7.98 1 9 C2.65 9 4.3 9 6 9 C6 6.69 6 4.38 6 2 C4.02 2 2.04 2 0 2 C0 1.34 0 0.68 0 0 Z " fill="#B45257" transform="translate(94,87)"/>
<path d="M0 0 C3.3 0 6.6 0 10 0 C10 2.64 10 5.28 10 8 C7.36 8.33 4.72 8.66 2 9 C2 9.66 2 10.32 2 11 C2.66 11.66 3.32 12.32 4 13 C3.01 13 2.02 13 1 13 C1 17.29 1 21.58 1 26 C-0.65 26 -2.3 26 -4 26 C-4.31267545 19.15588173 -4.21361906 13.3460636 -1.734375 6.9140625 C-0.86530736 4.64893939 -0.38577317 2.39179365 0 0 Z " fill="#FDDFDE" transform="translate(104,59)"/>
<path d="M0 0 C2.46278801 2.46278801 2.99771255 4.70676982 4 8 C4.66 8 5.32 8 6 8 C6.66 6.68 7.32 5.36 8 4 C8.23074219 4.80824219 8.46148437 5.61648437 8.69921875 6.44921875 C11.22623289 14.78983281 11.22623289 14.78983281 17 21 C13.7 21 10.4 21 7 21 C6.67 19.68 6.34 18.36 6 17 C2.37 16.67 -1.26 16.34 -5 16 C-5.33 16.66 -5.66 17.32 -6 18 C-6 17.01 -6 16.02 -6 15 C-3.69 15 -1.38 15 1 15 C1.33 14.01 1.66 13.02 2 12 C-0.475 11.01 -0.475 11.01 -3 10 C-2.01 6.7 -1.02 3.4 0 0 Z " fill="#FBE7E7" transform="translate(38,64)"/>
<path d="M0 0 C2.31 0 4.62 0 7 0 C7.33 3.63 7.66 7.26 8 11 C7.01 11.33 6.02 11.66 5 12 C4.67 18.27 4.34 24.54 4 31 C1 30 1 30 0 29 C-0.08775605 26.85441173 -0.10695219 24.70595579 -0.09765625 22.55859375 C-0.09443359 21.25341797 -0.09121094 19.94824219 -0.08789062 18.60351562 C-0.07953401 17.2148431 -0.07106905 15.82617123 -0.0625 14.4375 C-0.05748666 13.04492344 -0.05292347 11.65234519 -0.04882812 10.25976562 C-0.03699434 6.8398013 -0.0205088 3.41992156 0 0 Z " fill="#FDF7F8" transform="translate(51,53)"/>
<path d="M0 0 C3.96 0 7.92 0 12 0 C12 4.29 12 8.58 12 13 C8.04 13 4.08 13 0 13 C0 11.02 0 9.04 0 7 C0.99 6.67 1.98 6.34 3 6 C2.01 5.67 1.02 5.34 0 5 C0 3.35 0 1.7 0 0 Z " fill="#D36569" transform="translate(26,86)"/>
<path d="M0 0 C2 2 2 2 2 6 C2.66 6 3.32 6 4 6 C4.33 4.02 4.66 2.04 5 0 C6.98 0 8.96 0 11 0 C11.66 1.32 12.32 2.64 13 4 C13.66 2.68 14.32 1.36 15 0 C15.66 0 16.32 0 17 0 C17 3.63 17 7.26 17 11 C16.34 9.68 15.68 8.36 15 7 C15 8.32 15 9.64 15 11 C12.04335481 12.4783226 9.25770263 12.06032783 6 12 C5.67 10.35 5.34 8.7 5 7 C4.67 8.32 4.34 9.64 4 11 C3.34 11 2.68 11 2 11 C0.80712589 7.12315913 0 4.08378077 0 0 Z " fill="#F2A4A5" transform="translate(75,87)"/>
<path d="M0 0 C2.97 0 5.94 0 9 0 C9.33 1.65 9.66 3.3 10 5 C10.66 5 11.32 5 12 5 C12.33 3.35 12.66 1.7 13 0 C13.66 0 14.32 0 15 0 C15 3.63 15 7.26 15 11 C14.34 11 13.68 11 13 11 C12.67 10.34 12.34 9.68 12 9 C11.34 9 10.68 9 10 9 C9.67 8.34 9.34 7.68 9 7 C8.67 8.32 8.34 9.64 8 11 C5.36 11 2.72 11 0 11 C0 7.37 0 3.74 0 0 Z " fill="#BC565B" transform="translate(39,87)"/>
<path d="M0 0 C0.66 0 1.32 0 2 0 C2.66 0.99 3.32 1.98 4 3 C4.66 2.01 5.32 1.02 6 0 C9.27275026 0 11.846632 0.29925156 15 1 C15 3.97 15 6.94 15 10 C11.846632 10.70074844 9.27275026 11 6 11 C5.67 10.34 5.34 9.68 5 9 C4.34 9 3.68 9 3 9 C2.67 8.34 2.34 7.68 2 7 C1.34 7.99 0.68 8.98 0 10 C0 6.7 0 3.4 0 0 Z " fill="#CB6866" transform="translate(59,87)"/>
<path d="M0 0 C2.97 0 5.94 0 9 0 C9 0.66 9 1.32 9 2 C10.32 2.33 11.64 2.66 13 3 C12.505 4.03125 12.01 5.0625 11.5 6.125 C8.88593313 13.10829294 8.50171752 22.19772347 11.3125 29.1875 C12.71938662 31.53231104 13.88529324 33.28809453 16 35 C13.36 35 10.72 35 8 35 C8 24.11 8 13.22 8 2 C5.36 2 2.72 2 0 2 C0 1.34 0 0.68 0 0 Z " fill="#AF3F47" transform="translate(68,51)"/>
<path d="M0 0 C6.27 0 12.54 0 19 0 C19.33 0.99 19.66 1.98 20 3 C14.39 2.67 8.78 2.34 3 2 C3 12.56 3 23.12 3 34 C2.67 34 2.34 34 2 34 C2 24.43 2 14.86 2 5 C0.35 4.67 -1.3 4.34 -3 4 C-2.67 3.34 -2.34 2.68 -2 2 C-1.34 2 -0.68 2 0 2 C0 1.34 0 0.68 0 0 Z " fill="#D65C62" transform="translate(97,51)"/>
<path d="M0 0 C6.08073635 0.618836 9.55819622 3.19673817 14.4140625 6.69921875 C16.85732032 8.295196 16.85732032 8.295196 19.0703125 7.40234375 C19.70710938 6.93957031 20.34390625 6.47679687 21 6 C22.05960938 5.25363281 22.05960938 5.25363281 23.140625 4.4921875 C23.83671875 3.95851562 24.5328125 3.42484375 25.25 2.875 C26.30960938 2.06675781 26.30960938 2.06675781 27.390625 1.2421875 C27.92171875 0.83226563 28.4528125 0.42234375 29 0 C29.33 0.66 29.66 1.32 30 2 C29.34 2 28.68 2 28 2 C27.67 2.99 27.34 3.98 27 5 C25.36368108 6.04892238 23.69514137 7.04906703 22 8 C21.34 8.66 20.68 9.32 20 10 C17.65234375 10.046875 17.65234375 10.046875 14.9375 9.75 C14.03902344 9.66234375 13.14054687 9.5746875 12.21484375 9.484375 C11.11849609 9.24460937 11.11849609 9.24460937 10 9 C9.67 8.34 9.34 7.68 9 7 C6.69 7.33 4.38 7.66 2 8 C2.04125 7.05125 2.0825 6.1025 2.125 5.125 C2.34973818 1.89755144 2.34973818 1.89755144 0 0 Z " fill="#DB3B42" transform="translate(54,30)"/>
<path d="M0 0 C3.63 0 7.26 0 11 0 C11.66 1.98 12.32 3.96 13 6 C6.4 6 -0.2 6 -7 6 C-7 5.67 -7 5.34 -7 5 C-5.02 5 -3.04 5 -1 5 C-0.67 3.35 -0.34 1.7 0 0 Z " fill="#C84A4F" transform="translate(33,80)"/>
<path d="M0 0 C0.66 0 1.32 0 2 0 C2 2.97 2 5.94 2 9 C2.66 9 3.32 9 4 9 C4 6.03 4 3.06 4 0 C4.66 0 5.32 0 6 0 C6.33 2.31 6.66 4.62 7 7 C9.07553648 7.5534764 10.84365964 8 13 8 C13 8.66 13 9.32 13 10 C4.09 10 -4.82 10 -14 10 C-14 9.67 -14 9.34 -14 9 C-11.03 9 -8.06 9 -5 9 C-5 7.02 -5 5.04 -5 3 C-2 6.75 -2 6.75 -2 9 C-1.34 9 -0.68 9 0 9 C0 6.03 0 3.06 0 0 Z " fill="#FED0CE" transform="translate(107,89)"/>
<path d="M0 0 C5.75 -0.125 5.75 -0.125 8 1 C9.09506492 4.28519475 9.09960608 6.73663415 9.0625 10.1875 C9.05347656 11.27417969 9.04445313 12.36085938 9.03515625 13.48046875 C9.02355469 14.31191406 9.01195313 15.14335938 9 16 C8.67 16 8.34 16 8 16 C8 12.37 8 8.74 8 5 C7.34 5 6.68 5 6 5 C6 4.01 6 3.02 6 2 C4.35 2 2.7 2 1 2 C1 6.62 1 11.24 1 16 C1.66 16.33 2.32 16.66 3 17 C2.67 17.66 2.34 18.32 2 19 C3.32 19.33 4.64 19.66 6 20 C3.625 20.125 3.625 20.125 1 20 C-1 18 -1 18 -1.23046875 14.375 C-1.22647678 12.9166018 -1.2117184 11.45820257 -1.1875 10 C-1.18685547 9.26265625 -1.18621094 8.5253125 -1.18554688 7.765625 C-1.14050904 2.28101809 -1.14050904 2.28101809 0 0 Z " fill="#CE5358" transform="translate(84,59)"/>
<path d="M0 0 C2 2 2 2 2.25 5.5 C2 9 2 9 0 11 C-3.53571429 10.46428571 -3.53571429 10.46428571 -5 9 C-5.04092937 6.66702567 -5.04241723 4.33294775 -5 2 C-5.66 1.67 -6.32 1.34 -7 1 C-4.48718205 -0.25640898 -2.78302919 -0.20872719 0 0 Z " fill="#BB555E" transform="translate(118,87)"/>
<path d="M0 0 C0.99 0.33 1.98 0.66 3 1 C2.67 1.66 2.34 2.32 2 3 C2.5775 3.268125 3.155 3.53625 3.75 3.8125 C6.03484837 5.01839219 7.95345004 6.43097836 10 8 C10.66 8.33 11.32 8.66 12 9 C13 10.66666667 14 12.33333333 15 14 C15.66 14.33 16.32 14.66 17 15 C17.103125 14.21625 17.20625 13.4325 17.3125 12.625 C18 10 18 10 21 8 C21.66 8.66 22.32 9.32 23 10 C20.69 12.64 18.38 15.28 16 18 C14.95779297 16.94232422 14.95779297 16.94232422 13.89453125 15.86328125 C10.90927862 12.87802862 7.80932192 10.02862348 4.6875 7.1875 C4.13771484 6.68541016 3.58792969 6.18332031 3.02148438 5.66601562 C1.68194761 4.44296032 0.34111008 3.22132992 -1 2 C-0.67 1.34 -0.34 0.68 0 0 Z " fill="#D0484E" transform="translate(57,129)"/>
<path d="M0 0 C4.97631579 4.81578947 4.97631579 4.81578947 5.0625 9.125 C5.041875 10.07375 5.02125 11.0225 5 12 C3.02 12 1.04 12 -1 12 C-2.20272819 9.59454362 -2.10071472 8.05003047 -2.0625 5.375 C-2.05347656 4.55773437 -2.04445313 3.74046875 -2.03515625 2.8984375 C-2.02355469 2.27195312 -2.01195313 1.64546875 -2 1 C-1.34 0.67 -0.68 0.34 0 0 Z " fill="#DD363E" transform="translate(108,74)"/>
<path d="M0 0 C3.22004237 3.22004237 3.18997701 6.70127513 3.3125 11.125 C3.21759302 20.03439282 -0.69815762 27.94401646 -6 35 C-6.33 35 -6.66 35 -7 35 C-6.74438677 32.6568787 -6.40729228 30.32156597 -6 28 C-5.34 27.67 -4.68 27.34 -4 27 C-3.67 26.01 -3.34 25.02 -3 24 C-2.34 24 -1.68 24 -1 24 C-0.13036913 21.00293305 0.11763099 18.35043474 0.09765625 15.234375 C0.09443359 14.34492187 0.09121094 13.45546875 0.08789062 12.5390625 C0.07951172 11.61867188 0.07113281 10.69828125 0.0625 9.75 C0.05798828 8.81414063 0.05347656 7.87828125 0.04882812 6.9140625 C0.03706918 4.60930959 0.02063426 2.30468773 0 0 Z " fill="#CA4B4F" transform="translate(144,50)"/>
<path d="M0 0 C0.99 0.33 1.98 0.66 3 1 C3 1.66 3 2.32 3 3 C3.99 3 4.98 3 6 3 C6 4.32 6 5.64 6 7 C6.66 7.33 7.32 7.66 8 8 C10.4626293 9.90853771 12.7961082 11.7961082 15 14 C15 14.99 15 15.98 15 17 C15.598125 17.268125 16.19625 17.53625 16.8125 17.8125 C18.97224808 18.98493467 20.35790256 20.19369282 22 22 C21.67 22.66 21.34 23.32 21 24 C2.63265306 7.89795918 2.63265306 7.89795918 0 0 Z " fill="#D14D52" transform="translate(10,86)"/>
<path d="M0 0 C0.66 0 1.32 0 2 0 C2 9.24 2 18.48 2 28 C0 27 0 27 -0.8515625 24.49609375 C-1.23441406 22.98208984 -1.23441406 22.98208984 -1.625 21.4375 C-1.88539062 20.42558594 -2.14578125 19.41367188 -2.4140625 18.37109375 C-2.60742188 17.58863281 -2.80078125 16.80617188 -3 16 C-2.34 16 -1.68 16 -1 16 C-0.67 10.72 -0.34 5.44 0 0 Z " fill="#CB5D60" transform="translate(49,53)"/>
<path d="M0 0 C1.67542976 0.28604898 3.34385343 0.61781233 5 1 C5 3.97 5 6.94 5 10 C3.34385343 10.38218767 1.67542976 10.71395102 0 11 C-1 10 -1 10 -1.1328125 7.96875 C-1.13023438 7.1540625 -1.12765625 6.339375 -1.125 5.5 C-1.12757812 4.6853125 -1.13015625 3.870625 -1.1328125 3.03125 C-1 1 -1 1 0 0 Z " fill="#B74E57" transform="translate(69,87)"/>
<path d="M0 0 C2.97 0 5.94 0 9 0 C9.04254356 1.99954746 9.04080783 4.00041636 9 6 C8 7 8 7 6.15234375 7.09765625 C4.1015625 7.06510417 2.05078125 7.03255208 0 7 C0 4.69 0 2.38 0 0 Z " fill="#BF474C" transform="translate(105,59)"/>
<path d="M0 0 C2.0625 0.4375 2.0625 0.4375 4 1 C3.48914188 7.43681228 2.27057103 12.95942424 0 19 C-0.33 19 -0.66 19 -1 19 C-1.02683987 16.02077407 -1.04676037 13.04178705 -1.0625 10.0625 C-1.07087891 9.21236328 -1.07925781 8.36222656 -1.08789062 7.48632812 C-1.09111328 6.67744141 -1.09433594 5.86855469 -1.09765625 5.03515625 C-1.10289307 4.2862915 -1.10812988 3.53742676 -1.11352539 2.76586914 C-1 1 -1 1 0 0 Z " fill="#FDF9F6" transform="translate(101,54)"/>
<path d="M0 0 C0.33 0.99 0.66 1.98 1 3 C-0.14453125 4.9375 -0.14453125 4.9375 -1.8125 7 C-3.64945001 9.30382329 -5.36184039 11.54276059 -7 14 C-8.66666667 15.66666667 -10.33333333 17.33333333 -12 19 C-12.66 19.99 -13.32 20.98 -14 22 C-16.5 23.75 -16.5 23.75 -19 25 C-19.66 24.67 -20.32 24.34 -21 24 C-20.07058594 23.10539062 -19.14117187 22.21078125 -18.18359375 21.2890625 C-11.33066753 14.61379788 -5.02520172 8.19901332 0 0 Z " fill="#FDE5E3" transform="translate(141,79)"/>
<path d="M0 0 C3.96 0 7.92 0 12 0 C12 1.65 12 3.3 12 5 C8.04 5 4.08 5 0 5 C0 3.35 0 1.7 0 0 Z " fill="#DE8C91" transform="translate(26,86)"/>
<path d="M0 0 C1.32 0 2.64 0 4 0 C4 1.65 4 3.3 4 5 C5.32 4.34 6.64 3.68 8 3 C12 9.75 12 9.75 12 12 C9.69 12 7.38 12 5 12 C4.16180842 10.37750059 3.3295884 8.75191503 2.5 7.125 C2.0359375 6.22007813 1.571875 5.31515625 1.09375 4.3828125 C0 2 0 2 0 0 Z " fill="#FCE8E0" transform="translate(109,73)"/>
<path d="M0 0 C2.19270388 3.28905581 2.74221082 5.71873658 3.5625 9.5625 C4.42101371 13.90721829 4.42101371 13.90721829 6 18 C5.01 17.67 4.02 17.34 3 17 C2.67 17.99 2.34 18.98 2 20 C2.66 20 3.32 20 4 20 C3.34 21.32 2.68 22.64 2 24 C-0.04444916 17.61254019 -1.44511778 12.70009153 0 6 C0.03635763 4.0003305 0.04876598 1.99940538 0 0 Z " fill="#FBE1E1" transform="translate(58,56)"/>
<path d="M0 0 C0.33 0.66 0.66 1.32 1 2 C2.98 2 4.96 2 7 2 C7 4.31 7 6.62 7 9 C5.35 9 3.7 9 2 9 C2 8.01 2 7.02 2 6 C3.32 6 4.64 6 6 6 C6 5.34 6 4.68 6 4 C4.35 4 2.7 4 1 4 C1 5.98 1 7.96 1 10 C3.31 10 5.62 10 8 10 C8 8.02 8 6.04 8 4 C8.66 4.33 9.32 4.66 10 5 C9.67 6.98 9.34 8.96 9 11 C6.03 11 3.06 11 0 11 C0 7.37 0 3.74 0 0 Z " fill="#D56C73" transform="translate(93,87)"/>
<path d="M0 0 C11.74129581 -0.59299474 23.0176645 -1.05218061 32.90625 6.4453125 C34.3125 7.8125 34.3125 7.8125 36 10 C35.01 10 34.02 10 33 10 C33 9.34 33 8.68 33 8 C30.525 7.505 30.525 7.505 28 7 C28 6.34 28 5.68 28 5 C27.38511719 4.95101563 26.77023438 4.90203125 26.13671875 4.8515625 C24.92435547 4.73941406 24.92435547 4.73941406 23.6875 4.625 C22.88699219 4.55539063 22.08648437 4.48578125 21.26171875 4.4140625 C19 4 19 4 16 2 C13.24582682 1.69933846 10.57354853 1.49074701 7.8125 1.375 C6.68811523 1.31699219 6.68811523 1.31699219 5.54101562 1.2578125 C3.69440801 1.16371784 1.8472381 1.08077681 0 1 C0 0.67 0 0.34 0 0 Z " fill="#C84A4C" transform="translate(96,25)"/>
<path d="M0 0 C2.64 0 5.28 0 8 0 C8 10.56 8 21.12 8 32 C6.35 32 4.7 32 3 32 C4.32 31.67 5.64 31.34 7 31 C7 21.1 7 11.2 7 1 C5.35 1.33 3.7 1.66 2 2 C0.62533375 4.47636012 0.62533375 4.47636012 0 7 C-0.93423645 3.98968256 -1.04449911 3.13349732 0 0 Z " fill="#ECB6B7" transform="translate(68,53)"/>
<path d="M0 0 C0.66 0.33 1.32 0.66 2 1 C-0.44317167 4.22847685 -2.71863935 6.65617096 -6 9 C-9.38693444 11.77923089 -12.62360908 14.61485581 -15.6875 17.75 C-17.80236816 19.80770956 -19.37477703 20.78410726 -22 22 C-15.29111542 13.9493385 -7.97807473 6.78985083 0 0 Z " fill="#FCD7D6" transform="translate(97,122)"/>
<path d="M0 0 C0.99 0.33 1.98 0.66 3 1 C5.05839089 6.37468733 6.11685694 12.23505748 6 18 C4.5625 21.125 4.5625 21.125 3 23 C2.03988145 19.81449038 1.95356965 17.06527163 2.0625 13.75 C2.12240654 8.79106934 1.4295231 4.73529527 0 0 Z " fill="#FDE8E7" transform="translate(144,48)"/>
<path d="M0 0 C0.98484375 0.11085938 1.9696875 0.22171875 2.984375 0.3359375 C3.73203125 0.43132812 4.4796875 0.52671875 5.25 0.625 C5.25 0.955 5.25 1.285 5.25 1.625 C1.62 1.625 -2.01 1.625 -5.75 1.625 C-5.64592083 5.02580577 -5.64592083 5.02580577 -4.75 8.625 C-2.3248212 10.61583177 -2.3248212 10.61583177 0.25 11.625 C-0.08 12.285 -0.41 12.945 -0.75 13.625 C-2.91874252 13.11896008 -4.74967627 12.62516187 -6.75 11.625 C-7.74444068 8.28006316 -7.85348268 5.93544803 -6.75 2.625 C-7.74 2.295 -8.73 1.965 -9.75 1.625 C-6.30824478 -0.52199969 -3.9779708 -0.47356795 0 0 Z " fill="#DA3437" transform="translate(31.75,91.375)"/>
<path d="M0 0 C0.10867302 1.58179615 0.18589827 3.16577153 0.25 4.75 C0.29640625 5.63171875 0.3428125 6.5134375 0.390625 7.421875 C0 10 0 10 -4 14 C-4 9.71 -4 5.42 -4 1 C-2 0 -2 0 0 0 Z " fill="#FDF9FA" transform="translate(82,60)"/>
<path d="M0 0 C0.66 0 1.32 0 2 0 C2 3.96 2 7.92 2 12 C0.68 12 -0.64 12 -2 12 C-2.05395478 10.37536158 -2.09277195 8.75021459 -2.125 7.125 C-2.14820312 6.22007813 -2.17140625 5.31515625 -2.1953125 4.3828125 C-2 2 -2 2 0 0 Z " fill="#FCF7F4" transform="translate(102,72)"/>
<path d="M0 0 C2 2 2 2 2 6 C2.66 6 3.32 6 4 6 C4.33 4.02 4.66 2.04 5 0 C5.99 0 6.98 0 8 0 C8 3.63 8 7.26 8 11 C7.67 11 7.34 11 7 11 C6.67 8.69 6.34 6.38 6 4 C5.34 6.31 4.68 8.62 4 11 C3.34 11 2.68 11 2 11 C0.80712589 7.12315913 0 4.08378077 0 0 Z " fill="#B0494C" transform="translate(75,87)"/>
<path d="M0 0 C4.62 0 9.24 0 14 0 C13.67 1.98 13.34 3.96 13 6 C11 5 11 5 10 2 C7.03 1.505 7.03 1.505 4 1 C3.67 2.98 3.34 4.96 3 7 C2.34 7 1.68 7 1 7 C0.67 4.69 0.34 2.38 0 0 Z " fill="#F7C6C2" transform="translate(76,86)"/>
<path d="M0 0 C2.875 -0.125 2.875 -0.125 6 0 C8 2 8 2 8.125 4.625 C8.08375 5.40875 8.0425 6.1925 8 7 C8.66 7 9.32 7 10 7 C9.67 7.99 9.34 8.98 9 10 C8.34 10 7.68 10 7 10 C6.79375 9.4225 6.5875 8.845 6.375 8.25 C4.50249112 5.18589456 2.03041481 3.84460032 -1 2 C-0.67 1.34 -0.34 0.68 0 0 Z " fill="#FBFAFB" transform="translate(106,68)"/>
<path d="M0 0 C0.99 0 1.98 0 3 0 C3.03738281 0.60328125 3.07476562 1.2065625 3.11328125 1.828125 C3.38932456 6.81788285 3.38932456 6.81788285 5.625 11.125 C7 13 7 13 6.6875 16.75 C6.460625 17.8225 6.23375 18.895 6 20 C5.34 19.67 4.68 19.34 4 19 C3.19427152 16.37109028 2.50219251 13.7963755 1.875 11.125 C1.69324219 10.39152344 1.51148438 9.65804687 1.32421875 8.90234375 C0.58960618 5.86999561 0 3.13078675 0 0 Z " fill="#CC4A51" transform="translate(58,53)"/>
<path d="M0 0 C2.97 0 5.94 0 9 0 C9 0.66 9 1.32 9 2 C10.32 2.33 11.64 2.66 13 3 C12.01 5.64 11.02 8.28 10 11 C8.14223235 7.86501708 7.79859524 5.62528568 8 2 C5.36 2 2.72 2 0 2 C0 1.34 0 0.68 0 0 Z " fill="#D1444A" transform="translate(68,51)"/>
<path d="M0 0 C2.97 0 5.94 0 9 0 C8.67 1.32 8.34 2.64 8 4 C3.545 4.495 3.545 4.495 -1 5 C-0.67 3.35 -0.34 1.7 0 0 Z " fill="#E2343B" transform="translate(34,81)"/>
<path d="M0 0 C1.98 0.66 3.96 1.32 6 2 C6 4.31 6 6.62 6 9 C4.35 9 2.7 9 1 9 C1.33 7.35 1.66 5.7 2 4 C1.34 4 0.68 4 0 4 C0 2.68 0 1.36 0 0 Z " fill="#FDF5F3" transform="translate(60,72)"/>
<path d="M0 0 C2.95183101 2.95183101 3.08663988 5.95511947 4 10 C1.69 10 -0.62 10 -3 10 C-2.01 6.7 -1.02 3.4 0 0 Z " fill="#C9535D" transform="translate(38,64)"/>
<path d="M0 0 C2.64 0 5.28 0 8 0 C8 1.65 8 3.3 8 5 C5.36 4.67 2.72 4.34 0 4 C0 2.68 0 1.36 0 0 Z " fill="#E7A6A5" transform="translate(29,94)"/>
<path d="M0 0 C0.66 0 1.32 0 2 0 C2 3.63 2 7.26 2 11 C1.34 11 0.68 11 0 11 C-0.33 10.34 -0.66 9.68 -1 9 C-1.66 9 -2.32 9 -3 9 C-3 7.68 -3 6.36 -3 5 C-2.34 5 -1.68 5 -1 5 C-0.67 3.35 -0.34 1.7 0 0 Z " fill="#D07073" transform="translate(52,87)"/>
<path d="M0 0 C1.00007341 3.1113395 0.87515553 4.88833588 0 8 C0 9.32 0 10.64 0 12 C-0.66 12 -1.32 12 -2 12 C-2.66 10.02 -3.32 8.04 -4 6 C-6.31 5.67 -8.62 5.34 -11 5 C-11 4.67 -11 4.34 -11 4 C-8.03 4 -5.06 4 -2 4 C-1.34 2.68 -0.68 1.36 0 0 Z " fill="#FAF2EE" transform="translate(116,63)"/>
<path d="M0 0 C0.99 0 1.98 0 3 0 C3 3.63 3 7.26 3 11 C2.01 11 1.02 11 0 11 C0 7.37 0 3.74 0 0 Z " fill="#FDF9F0" transform="translate(55,87)"/>
<path d="M0 0 C1.65 0 3.3 0 5 0 C5.33 1.32 5.66 2.64 6 4 C6.66 4 7.32 4 8 4 C8.33 7.96 8.66 11.92 9 16 C6.68994131 13.68994131 6.27825897 12.16916343 5.375 9.0625 C5.11460938 8.18722656 4.85421875 7.31195313 4.5859375 6.41015625 C4 4 4 4 4 1 C2.68 0.67 1.36 0.34 0 0 Z " fill="#D34C52" transform="translate(37,52)"/>
<path d="M0 0 C0.99 0 1.98 0 3 0 C3.02900455 3.6041498 3.04680018 7.20826962 3.0625 10.8125 C3.07087891 11.83666016 3.07925781 12.86082031 3.08789062 13.91601562 C3.09111328 14.89892578 3.09433594 15.88183594 3.09765625 16.89453125 C3.10289307 17.80050049 3.10812988 18.70646973 3.11352539 19.63989258 C3 22 3 22 2 25 C1.34 24.67 0.68 24.34 0 24 C0.495 22.515 0.495 22.515 1 21 C1.09130522 19.62732077 1.13065525 18.25071082 1.1328125 16.875 C1.13410156 16.08609375 1.13539062 15.2971875 1.13671875 14.484375 C1.13285156 13.66453125 1.12898438 12.8446875 1.125 12 C1.12886719 11.18015625 1.13273437 10.3603125 1.13671875 9.515625 C1.13542969 8.72671875 1.13414063 7.9378125 1.1328125 7.125 C1.13168457 6.40570313 1.13055664 5.68640625 1.12939453 4.9453125 C1.06777378 2.78237639 1.06777378 2.78237639 0 0 Z " fill="#B55157" transform="translate(96,56)"/>
<path d="M0 0 C0.66 0 1.32 0 2 0 C2.04898438 1.25296875 2.09796875 2.5059375 2.1484375 3.796875 C2.22348583 5.44793821 2.29903277 7.09897881 2.375 8.75 C2.4059375 9.575 2.436875 10.4 2.46875 11.25 C2.50742188 12.04921875 2.54609375 12.8484375 2.5859375 13.671875 C2.6173584 14.4050293 2.6487793 15.13818359 2.68115234 15.89355469 C3.03772523 18.24922918 3.83662883 19.93450591 5 22 C3.68 22 2.36 22 1 22 C0.67 14.74 0.34 7.48 0 0 Z " fill="#FCEDE9" transform="translate(70,62)"/>
<path d="M0 0 C-1 1.5 -1 1.5 -3 3 C-5.71846235 3.27345479 -8.25677199 3.13491285 -11 3 C-10.67 2.01 -10.34 1.02 -10 0 C-6.30581799 -1.231394 -3.7943739 -0.64432764 0 0 Z " fill="#FAFBFA" transform="translate(93,55)"/>
<path d="M0 0 C0 3 0 3 -1.4609375 4.60546875 C-2.09257813 5.12753906 -2.72421875 5.64960937 -3.375 6.1875 C-4.00148438 6.71730469 -4.62796875 7.24710937 -5.2734375 7.79296875 C-7 9 -7 9 -9 9 C-9.66 10.32 -10.32 11.64 -11 13 C-11.99 12.67 -12.98 12.34 -14 12 C-12.41856529 10.56041153 -10.83477221 9.12341355 -9.25 7.6875 C-8.36828125 6.88699219 -7.4865625 6.08648437 -6.578125 5.26171875 C-4.44550672 3.39083089 -2.29812057 1.65915714 0 0 Z " fill="#FDE5E4" transform="translate(113,109)"/>
<path d="M0 0 C0.33 0.66 0.66 1.32 1 2 C2.65 2 4.3 2 6 2 C5.04578192 3.14926266 4.08647955 4.29430541 3.125 5.4375 C2.59132812 6.07558594 2.05765625 6.71367188 1.5078125 7.37109375 C0 9 0 9 -2 10 C-2 9.01 -2 8.02 -2 7 C-1.34 7 -0.68 7 0 7 C-0.2784375 5.824375 -0.2784375 5.824375 -0.5625 4.625 C-1 2 -1 2 0 0 Z " fill="#D74047" transform="translate(129,86)"/>
<path d="M0 0 C1.98 0 3.96 0 6 0 C6 1.65 6 3.3 6 5 C4.02 5 2.04 5 0 5 C0 3.35 0 1.7 0 0 Z " fill="#E3353D" transform="translate(107,60)"/>
<path d="M0 0 C1.65 0 3.3 0 5 0 C5 2.31 5 4.62 5 7 C3.35 7 1.7 7 0 7 C0 6.34 0 5.68 0 5 C0.99 5 1.98 5 3 5 C3 4.34 3 3.68 3 3 C2.01 3 1.02 3 0 3 C0 2.01 0 1.02 0 0 Z " fill="#F2C1C0" transform="translate(41,89)"/>
<path d="M0 0 C0.89203125 0.00902344 1.7840625 0.01804688 2.703125 0.02734375 C3.37859375 0.03894531 4.0540625 0.05054688 4.75 0.0625 C4.42 1.0525 4.09 2.0425 3.75 3.0625 C-0.54 3.0625 -4.83 3.0625 -9.25 3.0625 C-9.25 2.4025 -9.25 1.7425 -9.25 1.0625 C-6.09493858 0.12630187 -3.28413498 -0.0432123 0 0 Z " fill="#D44C52" transform="translate(90.25,50.9375)"/>
<path d="M0 0 C0.66 0.33 1.32 0.66 2 1 C0.1875 4 0.1875 4 -2 7 C-2.99 7 -3.98 7 -5 7 C-5.66 8.32 -6.32 9.64 -7 11 C-7 7.22089522 -6.00296038 6.53893899 -3.5 3.8125 C-2.8503125 3.09707031 -2.200625 2.38164063 -1.53125 1.64453125 C-1.0259375 1.10183594 -0.520625 0.55914062 0 0 Z " fill="#CE4A4F" transform="translate(19,35)"/>
<path d="M0 0 C1.65 0 3.3 0 5 0 C5 2.31 5 4.62 5 7 C3.35 7 1.7 7 0 7 C0 6.01 0 5.02 0 4 C1.32 4 2.64 4 4 4 C4 3.34 4 2.68 4 2 C2.68 2 1.36 2 0 2 C0 1.34 0 0.68 0 0 Z " fill="#FCCBD0" transform="translate(95,89)"/>
<path d="M0 0 C2 3 2 3 2 7 C0.5 8.75 0.5 8.75 -1 10 C0.32 10.33 1.64 10.66 3 11 C1.02 11 -0.96 11 -3 11 C-2.01 7.37 -1.02 3.74 0 0 Z " fill="#FBD5D3" transform="translate(29,74)"/>
<path d="M0 0 C0.33 0.66 0.66 1.32 1 2 C0.34 2 -0.32 2 -1 2 C-1.33 2.99 -1.66 3.98 -2 5 C-3.63631892 6.04892238 -5.30485863 7.04906703 -7 8 C-7.66 8.66 -8.32 9.32 -9 10 C-10.32 10 -11.64 10 -13 10 C-11.71756074 7.43512149 -10.54907802 7.23838187 -8 6 C-6.56241654 4.98739559 -5.1454872 3.94487352 -3.75 2.875 C-2.69039062 2.06675781 -2.69039062 2.06675781 -1.609375 1.2421875 C-1.07828125 0.83226563 -0.5471875 0.42234375 0 0 Z " fill="#CE4A4F" transform="translate(83,30)"/>
<path d="M0 0 C0.66 0 1.32 0 2 0 C2 3.63 2 7.26 2 11 C1.34 9.68 0.68 8.36 0 7 C-0.33 7.66 -0.66 8.32 -1 9 C-1.66 9 -2.32 9 -3 9 C-3 8.01 -3 7.02 -3 6 C-2.34 6 -1.68 6 -1 6 C-0.67 4.02 -0.34 2.04 0 0 Z " fill="#B54C51" transform="translate(90,87)"/>
<path d="M0 0 C1.32 0.33 2.64 0.66 4 1 C4 2.65 4 4.3 4 6 C2.68 6 1.36 6 0 6 C0 4.02 0 2.04 0 0 Z " fill="#FCC6CB" transform="translate(69,89)"/>
<path d="M0 0 C0.33 0.66 0.66 1.32 1 2 C3.01669827 3.13350534 3.01669827 3.13350534 5 4 C3.625 5.5 3.625 5.5 2 7 C1.34 7 0.68 7 0 7 C-0.33 6.01 -0.66 5.02 -1 4 C-3.00016466 2.79117904 -3.00016466 2.79117904 -5 2 C-3.35 1.34 -1.7 0.68 0 0 Z " fill="#FBE4E0" transform="translate(91,77)"/>
<path d="M0 0 C0.66 0.66 1.32 1.32 2 2 C1.70630173 3.34262065 1.3721042 4.67696283 1 6 C1.33 6.66 1.66 7.32 2 8 C-0.375 7.3125 -0.375 7.3125 -3 6 C-4.3125 3.375 -4.3125 3.375 -5 1 C-3.68 1.33 -2.36 1.66 -1 2 C-0.67 1.34 -0.34 0.68 0 0 Z " fill="#FADBD6" transform="translate(83,77)"/>
<path d="M0 0 C0.99 0.33 1.98 0.66 3 1 C1.38405168 3.04119788 -0.2856382 5.04072937 -2 7 C-2.66 7 -3.32 7 -4 7 C-3.6875 4.625 -3.6875 4.625 -3 2 C-2.01 1.34 -1.02 0.68 0 0 Z " fill="#D4444C" transform="translate(93,122)"/>
<path d="M0 0 C0 1.65 0 3.3 0 5 C-1.65 5 -3.3 5 -5 5 C-5 3.68 -5 2.36 -5 1 C-3 0 -3 0 0 0 Z " fill="#E5A8A5" transform="translate(38,86)"/>
<path d="M0 0 C3.98381075 2.16264012 6.88983545 4.71211176 10 8 C8.35 7.67 6.7 7.34 5 7 C5 6.34 5 5.68 5 5 C4.360625 4.731875 3.72125 4.46375 3.0625 4.1875 C1 3 1 3 0 0 Z " fill="#FCE2E2" transform="translate(33,112)"/>
<path d="M0 0 C0.99 0.33 1.98 0.66 3 1 C3 1.66 3 2.32 3 3 C3.99 3 4.98 3 6 3 C6 4.32 6 5.64 6 7 C6.66 7.33 7.32 7.66 8 8 C7.01 8 6.02 8 5 8 C3.61328125 6.50390625 3.61328125 6.50390625 2.3125 4.5625 C1.87550781 3.92441406 1.43851563 3.28632812 0.98828125 2.62890625 C0 1 0 1 0 0 Z " fill="#CF4147" transform="translate(10,86)"/>
<path d="M0 0 C0.33 0 0.66 0 1 0 C1 4.95 1 9.9 1 15 C0.67 15 0.34 15 0 15 C-0.144375 13.906875 -0.28875 12.81375 -0.4375 11.6875 C-0.88288104 8.06877013 -0.88288104 8.06877013 -2 5 C-1.0625 2.3125 -1.0625 2.3125 0 0 Z " fill="#C83B42" transform="translate(69,69)"/>
<path d="M0 0 C0.99 0 1.98 0 3 0 C3 2.31 3 4.62 3 7 C2.01 7 1.02 7 0 7 C0 4.69 0 2.38 0 0 Z " fill="#FCD7D9" transform="translate(115,89)"/>
<path d="M0 0 C0.33 0 0.66 0 1 0 C1 2.31 1 4.62 1 7 C-1.64 6.67 -4.28 6.34 -7 6 C-6.67 5.34 -6.34 4.68 -6 4 C-4.35 4.33 -2.7 4.66 -1 5 C-0.67 3.35 -0.34 1.7 0 0 Z " fill="#D6525D" transform="translate(67,76)"/>
<path d="M0 0 C-3.00617269 3.00617269 -5.82381598 2.59585316 -10 3 C-6.81859267 -0.48439851 -4.56758339 -1.41752588 0 0 Z " fill="#D3545B" transform="translate(95,27)"/>
<path d="M0 0 C0.66 0.33 1.32 0.66 2 1 C-0.41556126 4.19199167 -2.68003538 6.74716687 -6 9 C-5.52797514 4.75177626 -3.03344482 2.80010291 0 0 Z " fill="#FCE5E3" transform="translate(97,122)"/>
<path d="M0 0 C2 2 2 2 2 6 C2.66 6 3.32 6 4 6 C4 7.65 4 9.3 4 11 C3.34 11 2.68 11 2 11 C0.80712589 7.12315913 0 4.08378077 0 0 Z " fill="#B9545D" transform="translate(75,87)"/>
<path d="M0 0 C0.99 0.33 1.98 0.66 3 1 C3 2.32 3 3.64 3 5 C2.34 5 1.68 5 1 5 C1 6.98 1 8.96 1 11 C0.67 11 0.34 11 0 11 C0 7.37 0 3.74 0 0 Z " fill="#C44F58" transform="translate(84,87)"/>
<path d="M0 0 C1.98 0 3.96 0 6 0 C5.34 0.66 4.68 1.32 4 2 C3.3574765 4.06874034 3.3574765 4.06874034 3 6 C2.34 6 1.68 6 1 6 C0.67 4.02 0.34 2.04 0 0 Z " fill="#F5C6C8" transform="translate(48,86)"/>
<path d="M0 0 C1.32 0 2.64 0 4 0 C3.67 2.31 3.34 4.62 3 7 C2.34 7 1.68 7 1 7 C0.67 4.69 0.34 2.38 0 0 Z " fill="#FCCDCA" transform="translate(76,86)"/>
<path d="M0 0 C0.99 0.66 1.98 1.32 3 2 C0.03 4.475 0.03 4.475 -3 7 C-2.25 2.25 -2.25 2.25 0 0 Z " fill="#D53D45" transform="translate(77,137)"/>
<path d="M0 0 C0.66 0 1.32 0 2 0 C2.6875 3.3125 2.6875 3.3125 3 7 C2.01 7.99 1.02 8.98 0 10 C0 6.7 0 3.4 0 0 Z " fill="#B64B4E" transform="translate(59,87)"/>
<path d="M0 0 C0.66 0.66 1.32 1.32 2 2 C0.69593116 4.01920337 -0.63823419 6.01924973 -2 8 C-2.33 8 -2.66 8 -3 8 C-2.74438677 5.6568787 -2.40729228 3.32156597 -2 1 C-1.34 0.67 -0.68 0.34 0 0 Z " fill="#D54249" transform="translate(140,77)"/>
<path d="M0 0 C0.33 0 0.66 0 1 0 C1.27429625 5.39449293 1.36055646 8.51925805 -2 13 C-2.66 12.01 -3.32 11.02 -4 10 C-3.01 9.67 -2.02 9.34 -1 9 C-0.67 6.03 -0.34 3.06 0 0 Z " fill="#FBD6D2" transform="translate(119,58)"/>
<path d="M0 0 C2.64 0.66 5.28 1.32 8 2 C7.67 3.32 7.34 4.64 7 6 C5.83054208 5.19152271 4.66449539 4.37810888 3.5 3.5625 C2.8503125 3.11003906 2.200625 2.65757813 1.53125 2.19140625 C1.0259375 1.79824219 0.520625 1.40507812 0 1 C0 0.67 0 0.34 0 0 Z " fill="#FBE2DE" transform="translate(127,30)"/>
<path d="M0 0 C4 0 4 0 5.484375 1.3125 C6.65625 2.875 7.828125 4.4375 9 6 C4.58763974 6 3.21615077 3.9302707 0 1 C0 0.67 0 0.34 0 0 Z " fill="#CC444C" transform="translate(43,119)"/>
<path d="M0 0 C0.99 0 1.98 0 3 0 C3 1.32 3 2.64 3 4 C3.99 4.33 4.98 4.66 6 5 C4.02 5 2.04 5 0 5 C0 3.35 0 1.7 0 0 Z " fill="#E17C7C" transform="translate(26,94)"/>
<path d="M0 0 C0.66 0 1.32 0 2 0 C2 3.3 2 6.6 2 10 C1.67 10 1.34 10 1 10 C0.855625 9.2575 0.71125 8.515 0.5625 7.75 C0.21921582 6.07172178 -0.16651881 4.40053228 -0.625 2.75 C-0.74875 2.1725 -0.8725 1.595 -1 1 C-0.67 0.67 -0.34 0.34 0 0 Z " fill="#B54D58" transform="translate(52,87)"/>
<path d="M0 0 C0 0.99 0 1.98 0 3 C-1 4 -1 4 -3.28515625 4.09765625 C-4.65994141 4.08025391 -4.65994141 4.08025391 -6.0625 4.0625 C-6.98160156 4.05347656 -7.90070313 4.04445313 -8.84765625 4.03515625 C-9.55792969 4.02355469 -10.26820312 4.01195313 -11 4 C-11 3.67 -11 3.34 -11 3 C-10.37351562 2.86722656 -9.74703125 2.73445313 -9.1015625 2.59765625 C-8.28429687 2.42105469 -7.46703125 2.24445313 -6.625 2.0625 C-5.81289062 1.88847656 -5.00078125 1.71445313 -4.1640625 1.53515625 C-1.970537 1.07669307 -1.970537 1.07669307 0 0 Z " fill="#B95C64" transform="translate(95,82)"/>
<path d="M0 0 C1.65 0.33 3.3 0.66 5 1 C5 1.99 5 2.98 5 4 C3.35 4 1.7 4 0 4 C-0.33 3.34 -0.66 2.68 -1 2 C-0.67 1.34 -0.34 0.68 0 0 Z " fill="#FCFAFC" transform="translate(86,80)"/>
<path d="M0 0 C2.35953094 2.35953094 2.49141413 3.77895617 3 7 C0.03 6.505 0.03 6.505 -3 6 C-2.34 5.34 -1.68 4.68 -1 4 C-0.3574765 1.93125966 -0.3574765 1.93125966 0 0 Z " fill="#F8DAD5" transform="translate(45,68)"/>
<path d="M0 0 C2.97 0.33 5.94 0.66 9 1 C8.01 2.485 8.01 2.485 7 4 C4.08482708 2.92598892 2.22189824 2.22189824 0 0 Z " fill="#FCD9D9" transform="translate(66,35)"/>
<path d="M0 0 C1.33333333 2.66666667 2.66666667 5.33333333 4 8 C2.68 8 1.36 8 0 8 C-0.98120464 4.94736336 -0.98120464 3.05263664 0 0 Z " fill="#D34A53" transform="translate(77,76)"/>
<path d="M0 0 C2.50037734 2.17424117 3.43628586 3.73045798 4 7 C2.68 7 1.36 7 0 7 C0 4.69 0 2.38 0 0 Z " fill="#D64F53" transform="translate(109,75)"/>
<path d="M0 0 C0.66 0 1.32 0 2 0 C1.67 2.97 1.34 5.94 1 9 C0.67 9 0.34 9 0 9 C-0.87890625 2.84765625 -0.87890625 2.84765625 -1 1 C-0.67 0.67 -0.34 0.34 0 0 Z " fill="#D55257" transform="translate(65,57)"/>
<path d="M0 0 C2.31 0 4.62 0 7 0 C7 0.33 7 0.66 7 1 C5.824375 1.0928125 5.824375 1.0928125 4.625 1.1875 C3.75875 1.455625 2.8925 1.72375 2 2 C0.62533375 4.47636012 0.62533375 4.47636012 0 7 C-0.93423645 3.98968256 -1.04449911 3.13349732 0 0 Z " fill="#FBD5D3" transform="translate(68,53)"/>
<path d="M0 0 C2.31 0 4.62 0 7 0 C7 0.66 7 1.32 7 2 C4.69 2.66 2.38 3.32 0 4 C0 2.68 0 1.36 0 0 Z " fill="#FFEBE6" transform="translate(51,53)"/>
</svg>
