<svg width="34" height="34" viewBox="0 0 34 34" fill="none" xmlns="http://www.w3.org/2000/svg">
<path d="M12.8775 12.75C13.2106 11.8032 13.868 11.0049 14.7333 10.4963C15.5986 9.98777 16.6159 9.80187 17.6052 9.97155C18.5944 10.1412 19.4917 10.6555 20.138 11.4234C20.7844 12.1912 21.1382 13.163 21.1367 14.1667C21.1367 17 16.8867 18.4167 16.8867 18.4167M17 24.0834H17.0142M31.1667 17C31.1667 24.8241 24.824 31.1667 17 31.1667C9.17597 31.1667 2.83333 24.8241 2.83333 17C2.83333 9.17601 9.17597 2.83337 17 2.83337C24.824 2.83337 31.1667 9.17601 31.1667 17Z" stroke="#1E1E1E" stroke-width="4" stroke-linecap="round" stroke-linejoin="round"/>
</svg>
