<svg width="28" height="34" viewBox="0 0 28 34" fill="none" xmlns="http://www.w3.org/2000/svg">
<path d="M16.8333 2.83337H5.5C4.74855 2.83337 4.02789 3.13188 3.49653 3.66324C2.96518 4.19459 2.66667 4.91526 2.66667 5.66671V28.3334C2.66667 29.0848 2.96518 29.8055 3.49653 30.3368C4.02789 30.8682 4.74855 31.1667 5.5 31.1667H22.5C23.2514 31.1667 23.9721 30.8682 24.5035 30.3368C25.0348 29.8055 25.3333 29.0848 25.3333 28.3334V11.3334M16.8333 2.83337L25.3333 11.3334M16.8333 2.83337V11.3334H25.3333M19.6667 18.4167H8.33333M19.6667 24.0834H8.33333M11.1667 12.75H8.33333" stroke="#1E1E1E" stroke-width="4" stroke-linecap="round" stroke-linejoin="round"/>
</svg>
