<svg width="35" height="35" viewBox="0 0 35 35" fill="none" xmlns="http://www.w3.org/2000/svg">
<path d="M16.0417 5.83334H5.83335C5.05981 5.83334 4.31794 6.14063 3.77096 6.68761C3.22398 7.23459 2.91669 7.97646 2.91669 8.75V29.1667C2.91669 29.9402 3.22398 30.6821 3.77096 31.2291C4.31794 31.776 5.05981 32.0833 5.83335 32.0833H26.25C27.0236 32.0833 27.7654 31.776 28.3124 31.2291C28.8594 30.6821 29.1667 29.9402 29.1667 29.1667V18.9583M26.9792 3.64584C27.5593 3.06568 28.3462 2.73975 29.1667 2.73975C29.9872 2.73975 30.774 3.06568 31.3542 3.64584C31.9343 4.226 32.2603 5.01287 32.2603 5.83334C32.2603 6.65381 31.9343 7.44068 31.3542 8.02084L17.5 21.875L11.6667 23.3333L13.125 17.5L26.9792 3.64584Z" stroke="white" stroke-width="4" stroke-linecap="round" stroke-linejoin="round"/>
</svg>
