<svg width="34" height="34" viewBox="0 0 34 34" fill="none" xmlns="http://www.w3.org/2000/svg">
<g clip-path="url(#clip0_7_270)">
<path d="M12.8775 12.75C13.2106 11.8032 13.868 11.0048 14.7333 10.4963C15.5986 9.9877 16.616 9.80181 17.6052 9.97149C18.5944 10.1412 19.4917 10.6555 20.1381 11.4233C20.7844 12.1911 21.1382 13.163 21.1367 14.1666C21.1367 17 16.8867 18.4166 16.8867 18.4166M17 24.0833H17.0142M31.1667 17C31.1667 24.824 24.8241 31.1666 17 31.1666C9.17601 31.1666 2.83337 24.824 2.83337 17C2.83337 9.17595 9.17601 2.83331 17 2.83331C24.8241 2.83331 31.1667 9.17595 31.1667 17Z" stroke="#1E1E1E" stroke-width="4" stroke-linecap="round" stroke-linejoin="round"/>
</g>
<defs>
<clipPath id="clip0_7_270">
<rect width="34" height="34" fill="white"/>
</clipPath>
</defs>
</svg>
