<svg width="54" height="54" viewBox="0 0 54 54" fill="none" xmlns="http://www.w3.org/2000/svg">
<path d="M19.725 19.5C20.3128 17.8292 21.4729 16.4203 22.9999 15.5228C24.5269 14.6254 26.3222 14.2973 28.0679 14.5968C29.8136 14.8962 31.397 15.8038 32.5377 17.1588C33.6783 18.5138 34.3026 20.2288 34.3 22C34.3 27 26.8 29.5 26.8 29.5M27 39.5H27.025M52 27C52 40.8071 40.8071 52 27 52C13.1929 52 2 40.8071 2 27C2 13.1929 13.1929 2 27 2C40.8071 2 52 13.1929 52 27Z" stroke="#AA0000" stroke-width="4" stroke-linecap="round" stroke-linejoin="round"/>
</svg>
